<svg xmlns="http://www.w3.org/2000/svg" viewBox="0 0 800 600">
  <defs>
    <linearGradient id="bg2" x1="0" x2="0" y1="0" y2="1">
      <stop offset="0" stop-color="#fffdf9"/>
      <stop offset="1" stop-color="#f8e9e2"/>
    </linearGradient>
    <linearGradient id="crust" x1="0" x2="0" y1="0" y2="1">
      <stop offset="0" stop-color="#e0b184"/>
      <stop offset="1" stop-color="#c99361"/>
    </linearGradient>
  </defs>
  <rect width="800" height="600" fill="url(#bg2)"/>
  <circle cx="680" cy="120" r="80" fill="#f6e3d8" opacity="0.8"/>
  <circle cx="110" cy="490" r="80" fill="#f6e3d8" opacity="0.8"/>
  <g fill="#f0cbc4">
    <path d="M150 130 a13 13 0 0 1 26 0 a13 13 0 0 1 26 0 q 0 22 -26 38 q -26 -16 -26 -38 Z"/>
    <path d="M620 470 a10 10 0 0 1 20 0 a10 10 0 0 1 20 0 q 0 17 -20 30 q -20 -13 -20 -30 Z"/>
  </g>
  <ellipse cx="400" cy="470" rx="240" ry="26" fill="#e8d3bb" opacity="0.7"/>
  <ellipse cx="400" cy="450" rx="215" ry="36" fill="#fdf6ea"/>
  <ellipse cx="400" cy="443" rx="215" ry="36" fill="#f3e2ca"/>
  <g>
    <path d="M230 340 q 0 40 24 40 h 292 q 24 0 24 -40 l 0 -18 h -340 Z" fill="url(#crust)"/>
    <path d="M230 322 q -14 0 -14 -14 q 0 -14 14 -14 h 340 q 14 0 14 14 q 0 14 -14 14 Z" fill="url(#crust)"/>
    <g fill="#e9c294">
      <rect x="252" y="294" width="10" height="28" rx="5"/>
      <rect x="286" y="294" width="10" height="28" rx="5"/><rect x="320" y="294" width="10" height="28" rx="5"/>
      <rect x="354" y="294" width="10" height="28" rx="5"/><rect x="388" y="294" width="10" height="28" rx="5"/>
      <rect x="422" y="294" width="10" height="28" rx="5"/><rect x="456" y="294" width="10" height="28" rx="5"/>
      <rect x="490" y="294" width="10" height="28" rx="5"/><rect x="524" y="294" width="10" height="28" rx="5"/>
    </g>
    <rect x="240" y="316" width="320" height="26" rx="10" fill="#f7e7b0"/>
    <g fill="#e2596e">
      <circle cx="290" cy="300" r="26"/>
      <circle cx="400" cy="292" r="28"/>
      <circle cx="510" cy="300" r="26"/>
    </g>
    <g fill="#f08a9b">
      <circle cx="282" cy="292" r="9"/>
      <circle cx="392" cy="284" r="10"/>
      <circle cx="502" cy="292" r="9"/>
    </g>
    <g fill="#f2a93b">
      <path d="M345 284 a22 22 0 0 1 22 22 l -22 0 Z"/>
      <path d="M455 284 a22 22 0 0 0 -22 22 l 22 0 Z"/>
    </g>
    <g fill="#8fbc74">
      <ellipse cx="335" cy="272" rx="14" ry="6" transform="rotate(-24 335 272)"/>
      <ellipse cx="470" cy="272" rx="14" ry="6" transform="rotate(24 470 272)"/>
      <ellipse cx="402" cy="258" rx="13" ry="6" transform="rotate(-8 402 258)"/>
    </g>
    <g fill="#5d3a6e" opacity="0.85">
      <circle cx="255" cy="306" r="8"/><circle cx="545" cy="306" r="8"/>
      <circle cx="352" cy="308" r="7"/><circle cx="448" cy="308" r="7"/>
    </g>
  </g>
  <path d="M598 402 q 40 -8 38 26 q -2 32 -46 27" fill="none" stroke="#e6cfae" stroke-width="10" stroke-linecap="round"/>
  <g fill="none" stroke="#d8b98f" stroke-opacity="0.6" stroke-width="5" stroke-linecap="round">
    <path d="M660 300 q 22 -30 0 -60 q -22 -30 0 -60"/>
    <path d="M140 330 q 22 -30 0 -60 q -22 -30 0 -60"/>
  </g>
</svg>
