<svg xmlns="http://www.w3.org/2000/svg" viewBox="0 0 800 600">
  <defs>
    <linearGradient id="bg2" x1="0" x2="0" y1="0" y2="1">
      <stop offset="0" stop-color="#262120"/>
      <stop offset="1" stop-color="#3a1a14"/>
    </linearGradient>
    <clipPath id="rim2"><ellipse cx="400" cy="330" rx="235" ry="42"/></clipPath>
  </defs>
  <rect width="800" height="600" fill="url(#bg2)"/>
  <g fill="none" stroke="#ffffff" stroke-opacity="0.22" stroke-width="10" stroke-linecap="round">
    <path d="M350 240 C 335 205 365 185 350 150"/>
    <path d="M450 235 C 435 200 468 178 455 142"/>
  </g>
  <ellipse cx="400" cy="540" rx="280" ry="24" fill="#000000" opacity="0.35"/>
  <path d="M165 331 A235 196 0 0 0 635 331 Z" fill="#26211f"/>
  <path d="M200 406 A 200 154 0 0 0 600 406" stroke="#c8102e" stroke-width="18" fill="none" opacity="0.9"/>
  <rect x="352" y="520" width="96" height="22" rx="7" fill="#1c1817"/>
  <ellipse cx="400" cy="330" rx="237" ry="44" fill="#181413"/>
  <g clip-path="url(#rim2)">
    <rect x="165" y="288" width="470" height="90" fill="#33241a"/>
    <ellipse cx="400" cy="330" rx="200" ry="34" fill="#241408" opacity="0.85"/>
    <g fill="none" stroke="#dcbf74" stroke-width="9" stroke-linecap="round" stroke-opacity="0.95">
      <path d="M200 348 q 34 -20 68 0 t 68 0 t 68 0 t 68 0 t 68 0"/>
    </g>
    <circle cx="300" cy="320" r="44" fill="#a8713f"/>
    <circle cx="300" cy="320" r="30" fill="#c99a66"/>
    <ellipse cx="495" cy="324" rx="40" ry="30" fill="#f4e6c8"/>
    <ellipse cx="495" cy="324" rx="19" ry="14" fill="#d99a2e"/>
    <g fill="#7fae5a"><circle cx="392" cy="352" r="6"/><circle cx="412" cy="358" r="5"/><circle cx="430" cy="350" r="5"/></g>
    <g fill="#3a2410"><circle cx="360" cy="316" r="5"/><circle cx="380" cy="308" r="4"/><circle cx="345" cy="300" r="4"/></g>
  </g>
</svg>
