<svg xmlns="http://www.w3.org/2000/svg" viewBox="0 0 800 600">
  <defs>
    <linearGradient id="sky" x1="0" x2="0" y1="0" y2="1">
      <stop offset="0" stop-color="#fffdf9"/>
      <stop offset="1" stop-color="#f5e7d3"/>
    </linearGradient>
    <linearGradient id="wall" x1="0" x2="0" y1="0" y2="1">
      <stop offset="0" stop-color="#fbf4e8"/>
      <stop offset="1" stop-color="#f1e3cc"/>
    </linearGradient>
    <linearGradient id="glass" x1="0" x2="1" y1="0" y2="1">
      <stop offset="0" stop-color="#e9dfc9"/>
      <stop offset="1" stop-color="#d9cbb0"/>
    </linearGradient>
  </defs>
  <rect width="800" height="600" fill="url(#sky)"/>
  <circle cx="660" cy="100" r="60" fill="#f5d9a8" opacity="0.6"/>
  <circle cx="120" cy="90" r="45" fill="#f2e3cf" opacity="0.8"/>
  <rect x="0" y="470" width="800" height="130" fill="#e8d6ba"/>
  <rect x="0" y="470" width="800" height="14" fill="#d9c3a0"/>
  <rect x="90" y="180" width="620" height="290" fill="url(#wall)"/>
  <rect x="90" y="150" width="620" height="34" rx="8" fill="#c99361"/>
  <g>
    <path d="M110 184 h580 q 14 0 14 16 v 34 h -608 v -34 q 0 -16 14 -16 Z" fill="#8b5e3c"/>
    <g fill="#fffdf9">
      <path d="M96 234 a 33 26 0 0 0 66 0 Z"/>
      <path d="M162 234 a 33 26 0 0 0 66 0 Z" fill="#e2b8b0"/>
      <path d="M228 234 a 33 26 0 0 0 66 0 Z"/>
      <path d="M294 234 a 33 26 0 0 0 66 0 Z" fill="#e2b8b0"/>
      <path d="M360 234 a 33 26 0 0 0 66 0 Z"/>
      <path d="M426 234 a 33 26 0 0 0 66 0 Z" fill="#e2b8b0"/>
      <path d="M492 234 a 33 26 0 0 0 66 0 Z"/>
      <path d="M558 234 a 33 26 0 0 0 66 0 Z" fill="#e2b8b0"/>
      <path d="M624 234 a 33 26 0 0 0 66 0 Z"/>
    </g>
  </g>
  <rect x="290" y="120" width="220" height="46" rx="23" fill="#8b5e3c"/>
  <circle cx="330" cy="143" r="12" fill="#f6ead6"/>
  <path d="M326 139 a7 7 0 1 1 -5 12 a5 5 0 1 0 4 -9" fill="none" stroke="#c89b6d" stroke-width="2.5"/>
  <g fill="#f6ead6">
    <rect x="356" y="136" width="120" height="6" rx="3"/>
    <rect x="356" y="148" width="88" height="6" rx="3"/>
  </g>
  <g>
    <rect x="130" y="290" width="180" height="180" rx="10" fill="#a9744a"/>
    <rect x="142" y="302" width="156" height="156" rx="6" fill="url(#glass)"/>
    <path d="M150 440 L 286 312 M 176 452 L 296 340" stroke="#fffdf9" stroke-opacity="0.5" stroke-width="10"/>
    <rect x="142" y="372" width="156" height="8" fill="#a9744a"/>
  </g>
  <g>
    <rect x="470" y="290" width="180" height="180" rx="10" fill="#a9744a"/>
    <rect x="482" y="302" width="156" height="156" rx="6" fill="url(#glass)"/>
    <path d="M492 444 L 630 314 M 518 456 L 638 344" stroke="#fffdf9" stroke-opacity="0.5" stroke-width="10"/>
    <rect x="482" y="372" width="156" height="8" fill="#a9744a"/>
  </g>
  <g>
    <rect x="345" y="300" width="110" height="170" rx="8" fill="#8b5e3c"/>
    <rect x="355" y="310" width="90" height="110" rx="6" fill="url(#glass)"/>
    <circle cx="435" cy="400" r="6" fill="#f6ead6"/>
    <rect x="355" y="430" width="90" height="30" rx="6" fill="#a9744a"/>
  </g>
  <g transform="translate(255 470)">
    <path d="M-26 0 l 8 -58 a 20 20 0 0 1 36 0 l 8 58 Z" fill="#e2b8b0"/>
    <g fill="#6f9e63">
      <ellipse cx="0" cy="-76" rx="16" ry="38"/>
      <ellipse cx="-26" cy="-64" rx="13" ry="30" transform="rotate(-26 -26 -64)"/>
      <ellipse cx="26" cy="-64" rx="13" ry="30" transform="rotate(26 26 -64)"/>
    </g>
  </g>
  <g transform="translate(545 470)">
    <path d="M-26 0 l 8 -58 a 20 20 0 0 1 36 0 l 8 58 Z" fill="#e7c9a8"/>
    <g fill="#7fae6a">
      <ellipse cx="0" cy="-76" rx="16" ry="38"/>
      <ellipse cx="-24" cy="-62" rx="13" ry="30" transform="rotate(-26 -24 -62)"/>
      <ellipse cx="24" cy="-62" rx="13" ry="30" transform="rotate(26 24 -62)"/>
    </g>
  </g>
  <g transform="translate(722 430)">
    <rect x="-5" y="-90" width="10" height="130" rx="5" fill="#8b5e3c"/>
    <rect x="-38" y="-118" width="76" height="34" rx="8" fill="#fffdf9" stroke="#d9c3a0" stroke-width="3"/>
    <circle cx="-18" cy="-101" r="8" fill="#8b5e3c"/>
    <rect x="-4" y="-106" width="34" height="5" rx="2.5" fill="#c9b391"/>
    <rect x="-4" y="-96" width="26" height="5" rx="2.5" fill="#c9b391"/>
  </g>
  <g fill="none" stroke="#d8b98f" stroke-opacity="0.7" stroke-width="5" stroke-linecap="round">
    <path d="M60 300 q 18 -26 0 -52 q -18 -26 0 -52"/>
  </g>
  <ellipse cx="400" cy="520" rx="200" ry="12" fill="#d9c3a0" opacity="0.6"/>
</svg>
