<svg xmlns="http://www.w3.org/2000/svg" viewBox="0 0 800 600">
  <defs>
    <linearGradient id="bg1" x1="0" x2="0" y1="0" y2="1">
      <stop offset="0" stop-color="#fffdf9"/>
      <stop offset="1" stop-color="#f6ead8"/>
    </linearGradient>
    <linearGradient id="cof1" x1="0" x2="0" y1="0" y2="1">
      <stop offset="0" stop-color="#a9744a"/>
      <stop offset="1" stop-color="#8b5e3c"/>
    </linearGradient>
    <clipPath id="mouth1"><ellipse cx="400" cy="300" rx="140" ry="34"/></clipPath>
  </defs>
  <rect width="800" height="600" fill="url(#bg1)"/>
  <circle cx="120" cy="110" r="70" fill="#f2e3cf" opacity="0.8"/>
  <circle cx="700" cy="500" r="90" fill="#f2e3cf" opacity="0.8"/>
  <g fill="none" stroke="#b98a5e" stroke-opacity="0.55" stroke-width="9" stroke-linecap="round">
    <path d="M340 210 C 328 176 356 156 344 122 C 335 98 350 80 345 58"/>
    <path d="M400 200 C 388 166 418 144 406 112 C 397 90 412 70 407 48"/>
    <path d="M460 210 C 450 178 478 156 466 124 C 457 100 472 82 467 60"/>
  </g>
  <ellipse cx="400" cy="470" rx="230" ry="26" fill="#e4cdae" opacity="0.7"/>
  <ellipse cx="400" cy="452" rx="205" ry="34" fill="#fdf6ea"/>
  <ellipse cx="400" cy="446" rx="205" ry="34" fill="#f1e0c6"/>
  <path d="M260 300 A 140 132 0 0 0 540 300 Z" fill="#fffdf9"/>
  <path d="M260 300 A 140 132 0 0 0 540 300" fill="none" stroke="#e6cfae" stroke-width="5"/>
  <path d="M540 320 q 66 -12 62 40 q -4 50 -76 42" fill="none" stroke="#fffdf9" stroke-width="18" stroke-linecap="round"/>
  <ellipse cx="400" cy="300" rx="140" ry="34" fill="#f1e2ca"/>
  <g clip-path="url(#mouth1)">
    <rect x="260" y="266" width="280" height="68" fill="url(#cof1)"/>
    <path d="M400 272 c 32 0 54 15 54 31 c 0 18 -23 30 -54 30 c -30 0 -54 -12 -54 -30 c 0 -11 11 -20 25 -23 c -7 7 -8 16 0 22 c 11 7 29 5 36 -4 c 7 -10 0 -21 -13 -23 c 6 -2 13 -3 20 -3 Z" fill="#f6ead6"/>
    <path d="M400 303 q -7 15 0 27" fill="none" stroke="#c89b6d" stroke-width="4" stroke-linecap="round"/>
  </g>
  <g fill="#8b5e3c">
    <ellipse cx="278" cy="442" rx="15" ry="10" transform="rotate(-18 278 442)"/>
    <ellipse cx="310" cy="452" rx="15" ry="10" transform="rotate(16 310 452)"/>
    <ellipse cx="520" cy="446" rx="15" ry="10" transform="rotate(-12 520 446)"/>
  </g>
  <g fill="none" stroke="#fffdf9" stroke-width="2.5" stroke-linecap="round">
    <path d="M272 438 q 6 4 12 9"/>
    <path d="M304 448 q 6 4 12 9"/>
    <path d="M514 442 q 6 4 12 9"/>
  </g>
  <g fill="#7fae6a">
    <ellipse cx="640" cy="150" rx="40" ry="17" transform="rotate(-28 640 150)"/>
    <ellipse cx="672" cy="196" rx="36" ry="15" transform="rotate(20 672 196)"/>
  </g>
  <path d="M636 230 C 640 190 650 150 668 118" fill="none" stroke="#5f8f5a" stroke-width="8" stroke-linecap="round"/>
</svg>
