<svg xmlns="http://www.w3.org/2000/svg" viewBox="0 0 1600 1000">
  <defs>
    <linearGradient id="bg" x1="0" x2="0" y1="0" y2="1">
      <stop offset="0" stop-color="#fffdf9"/>
      <stop offset="1" stop-color="#f7ecdd"/>
    </linearGradient>
    <radialGradient id="sun" cx="0.72" cy="0.22" r="0.5">
      <stop offset="0" stop-color="#f5d9a8" stop-opacity="0.55"/>
      <stop offset="1" stop-color="#f5d9a8" stop-opacity="0"/>
    </radialGradient>
    <linearGradient id="coffee" x1="0" x2="0" y1="0" y2="1">
      <stop offset="0" stop-color="#a9744a"/>
      <stop offset="1" stop-color="#8b5e3c"/>
    </linearGradient>
    <clipPath id="cupmouth"><ellipse cx="800" cy="560" rx="208" ry="46"/></clipPath>
  </defs>
  <rect width="1600" height="1000" fill="url(#bg)"/>
  <rect width="1600" height="1000" fill="url(#sun)"/>
  <g fill="#f2e3cf" opacity="0.7">
    <circle cx="200" cy="180" r="110"/>
    <circle cx="1450" cy="720" r="150"/>
    <circle cx="1330" cy="200" r="70"/>
    <circle cx="120" cy="760" r="90"/>
  </g>
  <g fill="none" stroke="#d8b98f" stroke-opacity="0.5" stroke-width="6" stroke-linecap="round">
    <path d="M240 300 q 30 -40 0 -80 q -30 -40 0 -80"/>
    <path d="M1380 420 q 30 -40 0 -80 q -30 -40 0 -80"/>
  </g>
  <g transform="translate(280 560)">
    <path d="M0 120 C -10 40 -30 -60 6 -150" fill="none" stroke="#5f8f5a" stroke-width="12" stroke-linecap="round"/>
    <g fill="#7fae6a">
      <ellipse cx="-46" cy="-40" rx="52" ry="24" transform="rotate(-32 -46 -40)"/>
      <ellipse cx="52" cy="-84" rx="52" ry="24" transform="rotate(26 52 -84)"/>
      <ellipse cx="-38" cy="-130" rx="46" ry="21" transform="rotate(-24 -38 -130)"/>
      <ellipse cx="40" cy="-172" rx="42" ry="19" transform="rotate(30 40 -172)"/>
    </g>
    <path d="M-70 120 h140 l-18 110 a24 24 0 0 1 -24 20 h-56 a24 24 0 0 1 -24 -20 Z" fill="#e7c9a8"/>
    <rect x="-70" y="120" width="140" height="26" rx="10" fill="#d9b48c"/>
  </g>
  <g transform="translate(1290 620)">
    <path d="M-60 100 h120 l-14 90 a22 22 0 0 1 -22 18 h-48 a22 22 0 0 1 -22 -18 Z" fill="#e2b8b0"/>
    <g fill="#6f9e63">
      <ellipse cx="0" cy="30" rx="26" ry="62"/>
      <ellipse cx="-44" cy="48" rx="22" ry="52" transform="rotate(-24 -44 48)"/>
      <ellipse cx="44" cy="48" rx="22" ry="52" transform="rotate(24 44 48)"/>
    </g>
  </g>
  <g fill="none" stroke="#b98a5e" stroke-opacity="0.55" stroke-width="12" stroke-linecap="round">
    <path d="M700 420 C 682 372 720 344 702 296 C 688 262 708 234 702 202"/>
    <path d="M800 405 C 782 357 824 324 806 278 C 792 246 812 218 806 186"/>
    <path d="M900 420 C 886 376 924 344 906 300 C 892 268 912 240 906 212"/>
  </g>
  <ellipse cx="800" cy="835" rx="430" ry="42" fill="#e4cdae" opacity="0.8"/>
  <ellipse cx="800" cy="810" rx="380" ry="58" fill="#fdf6ea"/>
  <ellipse cx="800" cy="800" rx="380" ry="58" fill="#f6e8d2"/>
  <path d="M592 560 A 208 190 0 0 0 1008 560 Z" fill="#fffdf9"/>
  <path d="M592 560 A 208 190 0 0 0 1008 560" fill="none" stroke="#e6cfae" stroke-width="6"/>
  <path d="M1008 588 q 96 -18 92 58 q -4 74 -110 62" fill="none" stroke="#fffdf9" stroke-width="26" stroke-linecap="round"/>
  <ellipse cx="800" cy="560" rx="208" ry="46" fill="#f1e2ca"/>
  <g clip-path="url(#cupmouth)">
    <rect x="592" y="514" width="416" height="92" fill="url(#coffee)"/>
    <path d="M800 520 c 46 0 78 22 78 46 c 0 26 -34 44 -78 44 c -44 0 -78 -18 -78 -44 c 0 -16 16 -30 36 -34 c -10 10 -12 24 0 32 c 16 10 42 8 52 -6 c 10 -14 0 -30 -18 -34 c 8 -3 18 -4 28 -4 Z" fill="#f6ead6"/>
    <path d="M800 566 q -10 22 0 40" fill="none" stroke="#c89b6d" stroke-width="5" stroke-linecap="round"/>
  </g>
  <g fill="#8b5e3c">
    <ellipse cx="620" cy="792" rx="20" ry="14" transform="rotate(-20 620 792)"/>
    <ellipse cx="662" cy="806" rx="20" ry="14" transform="rotate(18 662 806)"/>
    <ellipse cx="975" cy="798" rx="20" ry="14" transform="rotate(-14 975 798)"/>
  </g>
  <g fill="none" stroke="#fffdf9" stroke-width="3" stroke-linecap="round">
    <path d="M612 786 q 8 6 16 12"/>
    <path d="M654 800 q 8 6 16 12"/>
    <path d="M967 792 q 8 6 16 12"/>
  </g>
  <g transform="translate(1060 760)">
    <rect x="-64" y="-10" width="128" height="30" rx="15" fill="#f0d7b8"/>
    <rect x="-52" y="-34" width="104" height="30" rx="15" fill="#e8b9ae"/>
    <rect x="-42" y="-58" width="84" height="30" rx="15" fill="#f5e3c4"/>
    <circle cx="0" cy="-64" r="10" fill="#d97f7f"/>
  </g>
  <g fill="#f0cbc4" opacity="0.9">
    <path d="M470 210 a16 16 0 0 1 32 0 a16 16 0 0 1 32 0 q 0 26 -32 46 q -32 -20 -32 -46 Z"/>
    <path d="M1150 130 a12 12 0 0 1 24 0 a12 12 0 0 1 24 0 q 0 20 -24 36 q -24 -16 -24 -36 Z"/>
  </g>
</svg>
