<svg xmlns="http://www.w3.org/2000/svg" viewBox="0 0 800 600">
  <defs>
    <linearGradient id="bg1" x1="0" x2="0" y1="0" y2="1">
      <stop offset="0" stop-color="#2a2422"/>
      <stop offset="1" stop-color="#42201c"/>
    </linearGradient>
    <clipPath id="rim1"><ellipse cx="400" cy="330" rx="235" ry="42"/></clipPath>
  </defs>
  <rect width="800" height="600" fill="url(#bg1)"/>
  <g fill="none" stroke="#ffffff" stroke-opacity="0.25" stroke-width="10" stroke-linecap="round">
    <path d="M330 240 C 315 205 345 185 330 150"/>
    <path d="M410 230 C 395 195 428 172 415 135"/>
    <path d="M485 245 C 472 212 500 190 488 158"/>
  </g>
  <ellipse cx="400" cy="540" rx="280" ry="24" fill="#000000" opacity="0.35"/>
  <path d="M165 331 A235 196 0 0 0 635 331 Z" fill="#f2ede3"/>
  <path d="M200 406 A 200 154 0 0 0 600 406" stroke="#c8102e" stroke-width="20" fill="none"/>
  <rect x="352" y="520" width="96" height="22" rx="7" fill="#d9d2c5"/>
  <ellipse cx="400" cy="330" rx="237" ry="44" fill="#241f1d"/>
  <g clip-path="url(#rim1)">
    <rect x="165" y="288" width="470" height="90" fill="#4a3524"/>
    <g fill="none" stroke="#e8c872" stroke-width="9" stroke-linecap="round">
      <path d="M180 350 q 34 -22 68 0 t 68 0 t 68 0 t 68 0 t 68 0 t 68 0"/>
    </g>
    <circle cx="290" cy="322" r="46" fill="#b07a4c"/>
    <circle cx="290" cy="322" r="32" fill="#d9a878"/>
    <ellipse cx="500" cy="326" rx="42" ry="32" fill="#f4e6c8"/>
    <ellipse cx="500" cy="326" rx="20" ry="15" fill="#e2a63d"/>
    <circle cx="398" cy="314" r="27" fill="#f6f1e7"/>
    <path d="M398 298 a16 16 0 1 1 -11 27 a11 11 0 1 0 8 -19" fill="none" stroke="#d24b5a" stroke-width="5" stroke-linecap="round"/>
    <rect x="560" y="272" width="52" height="66" fill="#173021" transform="rotate(8 586 305)"/>
    <g fill="#7fae5a"><circle cx="352" cy="352" r="6"/><circle cx="372" cy="360" r="5"/><circle cx="448" cy="356" r="6"/></g>
  </g>
</svg>
